<?xml version="1.0" encoding="UTF-8"?><svg id="Layer_1" xmlns="http://www.w3.org/2000/svg" xmlns:xlink="http://www.w3.org/1999/xlink" viewBox="0 0 1966 488"><defs><linearGradient id="linear-gradient" x1="155.31" y1="344.44" x2="1790.23" y2="432.72" gradientUnits="userSpaceOnUse"><stop offset="0" stop-color="#fe9430"/><stop offset=".08" stop-color="#fd8931"/><stop offset=".64" stop-color="#f94238"/><stop offset=".9" stop-color="#f8273c"/></linearGradient></defs><g id="light"><polyline points="110.56 412.24 39 412.24 39 42.35 1925 42.35 1925 412.24 1850.58 412.24" style="fill:none; stroke:#f7f7f7; stroke-miterlimit:10; stroke-width:8px;"/><path d="M222.12,353.29l-10.06,11.62c-6.8-5.81-13.6-8.36-21.54-8.36-8.5,0-14.31,3.68-14.31,10.63s3.68,9.64,19.7,14.6c17.71,5.67,29.05,13.04,29.05,31.18s-14.17,30.61-37.98,30.61c-16.3,0-28.2-5.81-36.28-13.75l10.91-11.9c6.8,6.24,14.74,9.92,24.8,9.92s16.86-4.82,16.86-13.46c0-7.79-3.83-11.19-18.71-15.73-21.26-6.66-29.76-15.16-29.76-30.04,0-16.72,14.45-27.63,34.29-27.63,14.6,0,24.52,4.39,33.02,12.33Z" style="fill:url(#linear-gradient); stroke-width:0px;"/><path d="M339.88,386.59v54.7h-20.12v-51.3c0-8.64-3.4-11.05-7.37-11.05-5.53,0-9.21,3.83-13.04,10.49v51.87h-20.12v-51.3c0-8.64-3.26-11.05-7.37-11.05-5.53,0-9.21,3.83-12.9,10.49v51.87h-20.12v-75.11h17.43l1.56,9.35c5.53-7.37,12.33-11.62,21.82-11.62,8.5,0,15.02,4.39,17.86,12.19,5.95-7.79,12.9-12.19,22.53-12.19,11.76,0,19.84,8.5,19.84,22.67Z" style="fill:url(#linear-gradient); stroke-width:0px;"/><path d="M421.94,429.95l-4.25,13.32c-8.5-.71-14.17-3.54-17.29-11.05-5.38,8.22-13.6,11.34-22.53,11.34-15.02,0-24.37-9.64-24.37-23.24,0-16.44,12.33-25.37,34.58-25.37h8.64v-3.68c0-9.35-3.97-12.33-13.46-12.33-4.96,0-12.19,1.42-19.84,3.97l-4.53-13.46c9.35-3.68,19.27-5.53,27.77-5.53,20.83,0,29.76,9.21,29.76,26.22v30.33c0,6.09,1.84,8.22,5.53,9.49ZM396.71,420.74v-14.31h-6.66c-10.91,0-16.3,3.97-16.3,12.19,0,6.66,3.4,10.49,9.64,10.49,5.81,0,10.2-2.98,13.32-8.36Z" style="fill:url(#linear-gradient); stroke-width:0px;"/><path d="M482.87,365.19l-3.4,19.41c-2.27-.57-4.11-.99-6.66-.99-9.21,0-13.46,6.8-16.15,18.85v38.83h-20.12v-75.11h17.43l1.84,14.6c3.54-10.49,10.77-16.72,19.56-16.72,2.69,0,4.96.43,7.51,1.13Z" style="fill:url(#linear-gradient); stroke-width:0px;"/><path d="M520.57,443.56c-15.59-.14-23.52-9.07-23.52-25.79v-37.41h-11.19v-14.17h11.19v-16.44l20.12-2.41v18.85h17.29l-1.98,14.17h-15.3v36.99c0,7.37,2.41,10.2,7.51,10.2,2.69,0,5.38-.85,8.5-2.69l6.94,12.9c-5.53,3.83-12.9,5.81-19.56,5.81Z" style="fill:url(#linear-gradient); stroke-width:0px;"/><path d="M604.88,398.35v42.94h-20.83v-98.06h20.83v38.69h32.45v-38.69h20.83v98.06h-20.83v-42.94h-32.45Z" style="fill:url(#linear-gradient); stroke-width:0px;"/><path d="M745.88,403.74c0,23.81-13.46,39.82-35.99,39.82s-35.99-14.88-35.99-39.82,13.46-39.82,36.14-39.82,35.85,14.88,35.85,39.82ZM694.87,403.74c0,17.29,5.1,24.8,15.02,24.8s15.02-7.65,15.02-24.8-5.1-24.8-14.88-24.8-15.16,7.65-15.16,24.8Z" style="fill:url(#linear-gradient); stroke-width:0px;"/><path d="M862.23,386.59v54.7h-20.12v-51.3c0-8.64-3.4-11.05-7.37-11.05-5.53,0-9.21,3.83-13.04,10.49v51.87h-20.12v-51.3c0-8.64-3.26-11.05-7.37-11.05-5.53,0-9.21,3.83-12.9,10.49v51.87h-20.12v-75.11h17.43l1.56,9.35c5.53-7.37,12.33-11.62,21.82-11.62,8.5,0,15.02,4.39,17.86,12.19,5.95-7.79,12.9-12.19,22.53-12.19,11.76,0,19.84,8.5,19.84,22.67Z" style="fill:url(#linear-gradient); stroke-width:0px;"/><path d="M944.42,409.83h-46.91c1.42,14.45,8.22,18.71,17.86,18.71,6.38,0,11.76-1.98,18.28-6.52l8.36,11.34c-7.37,5.95-16.72,10.2-28.48,10.2-24.09,0-36.7-15.87-36.7-39.4s12.19-40.25,34.15-40.25,33.87,14.17,33.87,38.12c0,2.55-.28,5.67-.42,7.79ZM924.86,396.37c0-11.34-3.83-18.71-13.46-18.71-7.94,0-12.9,5.38-13.89,19.56h27.35v-.85Z" style="fill:url(#linear-gradient); stroke-width:0px;"/><path d="M1057.22,429.95l-4.25,13.32c-8.5-.71-14.17-3.54-17.29-11.05-5.39,8.22-13.6,11.34-22.53,11.34-15.02,0-24.37-9.64-24.37-23.24,0-16.44,12.33-25.37,34.58-25.37h8.64v-3.68c0-9.35-3.97-12.33-13.46-12.33-4.96,0-12.19,1.42-19.84,3.97l-4.53-13.46c9.35-3.68,19.27-5.53,27.77-5.53,20.83,0,29.76,9.21,29.76,26.22v30.33c0,6.09,1.84,8.22,5.53,9.49ZM1032,420.74v-14.31h-6.66c-10.91,0-16.3,3.97-16.3,12.19,0,6.66,3.4,10.49,9.64,10.49,5.81,0,10.2-2.98,13.32-8.36Z" style="fill:url(#linear-gradient); stroke-width:0px;"/><path d="M1134.73,386.59v54.7h-20.12v-51.3c0-8.64-3.12-11.05-8.22-11.05-5.81,0-10.34,3.83-14.45,10.49v51.87h-20.12v-75.11h17.43l1.56,9.49c6.09-7.51,13.32-11.76,22.96-11.76,13.18,0,20.97,8.5,20.97,22.67Z" style="fill:url(#linear-gradient); stroke-width:0px;"/><path d="M1218.91,441.29h-17.71l-1.13-9.21c-4.53,6.52-11.48,11.48-21.54,11.48-18.85,0-28.48-15.87-28.48-39.82s11.62-39.82,30.75-39.82c7.23,0,13.46,3.12,18,7.51v-37.41l20.12,2.27v105.01ZM1198.79,419.47v-33.58c-3.68-4.39-7.37-7.08-12.9-7.08-8.93,0-14.88,7.37-14.88,24.94,0,18.85,5.38,24.8,13.6,24.8,5.95,0,10.34-3.12,14.17-9.07Z" style="fill:url(#linear-gradient); stroke-width:0px;"/><path d="M1336.67,353.29l-10.06,11.62c-6.8-5.81-13.6-8.36-21.54-8.36-8.5,0-14.31,3.68-14.31,10.63s3.68,9.64,19.7,14.6c17.71,5.67,29.05,13.04,29.05,31.18s-14.17,30.61-37.98,30.61c-16.3,0-28.2-5.81-36.28-13.75l10.91-11.9c6.8,6.24,14.74,9.92,24.8,9.92s16.86-4.82,16.86-13.46c0-7.79-3.83-11.19-18.71-15.73-21.26-6.66-29.76-15.16-29.76-30.04,0-16.72,14.45-27.63,34.29-27.63,14.6,0,24.52,4.39,33.02,12.33Z" style="fill:url(#linear-gradient); stroke-width:0px;"/><path d="M1416.45,409.83h-46.91c1.42,14.45,8.22,18.71,17.86,18.71,6.38,0,11.76-1.98,18.28-6.52l8.36,11.34c-7.37,5.95-16.72,10.2-28.48,10.2-24.09,0-36.7-15.87-36.7-39.4s12.19-40.25,34.15-40.25,33.87,14.17,33.87,38.12c0,2.55-.28,5.67-.43,7.79ZM1396.9,396.37c0-11.34-3.83-18.71-13.46-18.71-7.94,0-12.9,5.38-13.89,19.56h27.35v-.85Z" style="fill:url(#linear-gradient); stroke-width:0px;"/><path d="M1488.02,372.99l-8.79,12.05c-4.82-3.83-9.21-5.53-14.74-5.53-10.06,0-16.01,7.23-16.01,24.66s6.38,23.24,15.87,23.24c5.53,0,9.35-1.7,14.6-5.67l9.07,13.04c-6.8,5.53-14.74,8.79-24.66,8.79-22.39,0-36.14-15.3-36.14-39.25s13.89-40.39,35.85-40.39c10.06,0,17.86,2.98,24.94,9.07Z" style="fill:url(#linear-gradient); stroke-width:0px;"/><path d="M1543.57,441.29l-.99-10.06c-5.38,8.36-12.75,12.33-22.82,12.33-13.89,0-20.97-8.93-20.97-23.38v-53.99h20.12v51.44c0,8.22,2.69,10.91,8.22,10.91s10.2-3.68,13.75-9.78v-52.57h20.12v75.11h-17.43Z" style="fill:url(#linear-gradient); stroke-width:0px;"/><path d="M1627.18,365.19l-3.4,19.41c-2.27-.57-4.11-.99-6.66-.99-9.21,0-13.46,6.8-16.16,18.85v38.83h-20.12v-75.11h17.43l1.84,14.6c3.54-10.49,10.77-16.72,19.56-16.72,2.69,0,4.96.43,7.51,1.13Z" style="fill:url(#linear-gradient); stroke-width:0px;"/><path d="M1659.34,339.26c0,6.66-5.1,11.76-12.33,11.76s-12.19-5.1-12.19-11.76,4.96-11.76,12.19-11.76,12.33,5.1,12.33,11.76ZM1637.1,441.29v-75.11h20.12v75.11h-20.12Z" style="fill:url(#linear-gradient); stroke-width:0px;"/><path d="M1702.42,443.56c-15.59-.14-23.52-9.07-23.52-25.79v-37.41h-11.2v-14.17h11.2v-16.44l20.12-2.41v18.85h17.29l-1.98,14.17h-15.3v36.99c0,7.37,2.41,10.2,7.51,10.2,2.69,0,5.39-.85,8.5-2.69l6.94,12.9c-5.53,3.83-12.9,5.81-19.56,5.81Z" style="fill:url(#linear-gradient); stroke-width:0px;"/><path d="M1729.06,472.46l-2.12-14.45c14.88-1.98,19.98-6.52,24.09-16.72h-6.94l-23.38-75.11h21.4l15.02,62.07,15.87-62.07h20.83l-24.23,75.25c-5.81,18.28-17.57,29.48-40.53,31.03Z" style="fill:url(#linear-gradient); stroke-width:0px;"/><path d="M210.15,257.03l-3.78,27.91h-95.8V121.25h34.77v135.77h64.81Z" style="fill:#f7f7f7; stroke-width:0px;"/><path d="M342.84,222.26c0,39.74-22.47,66.47-60.08,66.47s-60.08-24.84-60.08-66.47,22.47-66.47,60.32-66.47,59.85,24.84,59.85,66.47ZM257.69,222.26c0,28.86,8.52,41.4,25.07,41.4s25.07-12.77,25.07-41.4-8.52-41.39-24.84-41.39-25.31,12.77-25.31,41.39Z" style="fill:#f7f7f7; stroke-width:0px;"/><path d="M462.29,170.93l-14.67,20.11c-8.04-6.39-15.38-9.23-24.6-9.23-16.79,0-26.73,12.06-26.73,41.16s10.64,38.79,26.49,38.79c9.23,0,15.61-2.84,24.36-9.46l15.14,21.76c-11.35,9.22-24.6,14.67-41.16,14.67-37.37,0-60.32-25.55-60.32-65.52s23.18-67.41,59.84-67.41c16.79,0,29.8,4.97,41.63,15.14Z" style="fill:#f7f7f7; stroke-width:0px;"/><path d="M481.45,284.94V109.66l33.59-3.78v179.06h-33.59ZM594.76,284.94h-38.08l-40.45-68.6,40.21-56.77h34.77l-39.98,55.11,43.52,70.25Z" style="fill:#f7f7f7; stroke-width:0px;"/><path d="M673.76,148.46v136.48h-34.77v-136.48h-43.52v-27.2h123.48l-3.78,27.2h-41.4Z" style="fill:#f7f7f7; stroke-width:0px;"/><path d="M822.31,232.43h-78.3c2.37,24.13,13.72,31.22,29.8,31.22,10.64,0,19.63-3.31,30.51-10.88l13.96,18.92c-12.3,9.93-27.91,17.03-47.54,17.03-40.21,0-61.26-26.49-61.26-65.76s20.34-67.18,57.01-67.18,56.53,23.65,56.53,63.63c0,4.26-.47,9.46-.71,13.01ZM789.66,209.96c0-18.92-6.39-31.22-22.47-31.22-13.25,0-21.52,8.99-23.18,32.64h45.65v-1.42Z" style="fill:#f7f7f7; stroke-width:0px;"/><path d="M952.88,193.64v91.31h-33.59v-85.63c0-14.43-5.2-18.45-13.72-18.45-9.7,0-17.27,6.39-24.13,17.5v86.57h-33.59v-125.37h29.09l2.6,15.85c10.17-12.54,22.23-19.63,38.32-19.63,22,0,35.01,14.19,35.01,37.85Z" style="fill:#f7f7f7; stroke-width:0px;"/><path d="M1106.62,148.46v136.48h-34.77v-136.48h-43.52v-27.2h123.47l-3.78,27.2h-41.39Z" style="fill:#f7f7f7; stroke-width:0px;"/><path d="M1255.17,232.43h-78.3c2.37,24.13,13.72,31.22,29.8,31.22,10.64,0,19.63-3.31,30.51-10.88l13.96,18.92c-12.3,9.93-27.91,17.03-47.54,17.03-40.21,0-61.26-26.49-61.26-65.76s20.34-67.18,57.01-67.18,56.53,23.65,56.53,63.63c0,4.26-.47,9.46-.71,13.01ZM1222.53,209.96c0-18.92-6.39-31.22-22.47-31.22-13.25,0-21.53,8.99-23.18,32.64h45.65v-1.42Z" style="fill:#f7f7f7; stroke-width:0px;"/><path d="M1374.62,170.93l-14.67,20.11c-8.04-6.39-15.38-9.23-24.6-9.23-16.79,0-26.73,12.06-26.73,41.16s10.64,38.79,26.49,38.79c9.22,0,15.61-2.84,24.36-9.46l15.14,21.76c-11.35,9.22-24.6,14.67-41.16,14.67-37.37,0-60.32-25.55-60.32-65.52s23.18-67.41,59.85-67.41c16.79,0,29.8,4.97,41.63,15.14Z" style="fill:#f7f7f7; stroke-width:0px;"/><path d="M1498.8,193.64v91.31h-33.59v-85.63c0-14.43-5.44-18.45-13.72-18.45-9.46,0-17.27,6.39-24.13,17.27v86.81h-33.59V109.66l33.59-3.55v67.65c9.94-11.59,21.29-17.98,36.43-17.98,21.76,0,35.01,14.19,35.01,37.85Z" style="fill:#f7f7f7; stroke-width:0px;"/><g id="house"><polyline id="roof" points="1568.58 201.92 1680.24 128.1 1792.07 202.03" style="fill:none; stroke:#f8273c; stroke-miterlimit:10; stroke-width:10px;"/><rect id="house-left" x="1606.01" y="204.63" width="52.83" height="81.27" style="fill:#f8273c; stroke-width:0px;"/><rect id="house-right" x="1702.52" y="204.63" width="52.83" height="81.27" style="fill:#f8273c; stroke-width:0px;"/><polyline id="mid-section" points="1597.64 205.9 1680.26 151.28 1763.01 205.98" style="fill:#f8273c; stroke-width:0px;"/><rect id="chimny" x="1723.34" y="126.07" width="17.61" height="35.22" style="fill:#f8273c; stroke-width:0px;"/></g></g></svg>